<svg xmlns="http://www.w3.org/2000/svg" version="1.1" xmlns:xlink="http://www.w3.org/1999/xlink" xmlns:svgjs="http://svgjs.dev/svgjs" width="1000" height="290" viewBox="0 0 1000 290"><g transform="matrix(1,0,0,1,-0.6060596070323641,0.48557659970720124)"><svg viewBox="0 0 396 115" data-background-color="#d2d6dc" preserveAspectRatio="xMidYMid meet" height="290" width="1000" xmlns="http://www.w3.org/2000/svg" xmlns:xlink="http://www.w3.org/1999/xlink"><g id="tight-bounds" transform="matrix(1,0,0,1,0.2399996043848205,-0.1925562378149266)"><svg viewBox="0 0 395.52 115.38511247562984" height="115.38511247562984" width="395.52"><g><svg viewBox="0 0 602.1961331431677 175.6787736526946" height="115.38511247562984" width="395.52"><g transform="matrix(1,0,0,1,206.67613314316773,54.287291017964066)"><svg viewBox="0 0 395.52 67.10419161676646" height="67.10419161676646" width="395.52"><g id="textblocktransform"><svg viewBox="0 0 395.52 67.10419161676646" height="67.10419161676646" width="395.52" id="textblock"><g><svg viewBox="0 0 395.52 67.10419161676646" height="67.10419161676646" width="395.52"><g transform="matrix(1,0,0,1,0,0)"><svg width="395.52" viewBox="1.5 -33.5 200.38999938964844 34" height="67.10419161676646" data-palette-color="#6b7280"><path d="M15.6 0L1.5 0 1.5-0.8 5.95-2.9 5.95-30.1 1.5-32.2 1.5-33 12.35-33 32-12.4 32-30.1 25.85-32.2 25.85-33 39.85-33 39.85-32.2 35.5-30.1 35.5 0.25 31.55 0.25 9.45-22.65 9.45-2.9 15.6-0.8 15.6 0ZM60.85 0.5L60.85 0.5Q57.25 0.5 54.05-0.75 50.85-2 48.42-4.25 46-6.5 44.6-9.47 43.2-12.45 43.2-15.95L43.2-15.95Q43.2-19.8 44.8-23 46.4-26.2 49.15-28.55 51.9-30.9 55.4-32.2 58.9-33.5 62.7-33.5L62.7-33.5Q65.4-33.5 67.3-33.2 69.2-32.9 70.7-32.35 72.2-31.8 73.65-31.1L73.65-31.1 74.4-21.95 73.45-21.95 67.65-30.25Q65.85-31.1 63.15-31.1L63.15-31.1Q60.45-31.1 58.17-29.23 55.9-27.35 54.52-23.93 53.15-20.5 53.15-15.8L53.15-15.8Q53.15-11.65 54.37-8.58 55.6-5.5 57.67-3.83 59.75-2.15 62.3-2.15L62.3-2.15Q63.3-2.15 64.5-2.3L64.5-2.3 64.5-11.95 60.05-14.55 60.05-15.35 77.95-15.35 77.95-14.55 74-11.95 74-3.7Q72.45-2.4 70.2-1.48 67.95-0.55 65.47-0.03 63 0.5 60.85 0.5ZM70.1-3.85L70.1-3.85 69.6-3.6Q69.85-3.7 70.1-3.85ZM100.55 0.5L100.55 0.5Q95.8 0.5 92.25-0.95 88.7-2.4 86.75-5.8 84.8-9.2 84.8-15.1L84.8-15.1 84.8-30.1 80.3-32.2 80.3-33 98.8-33 98.8-32.2 94.3-30.1 94.3-14.5Q94.3-10.4 95.57-8.08 96.85-5.75 98.97-4.78 101.1-3.8 103.7-3.8L103.7-3.8Q105.9-3.8 107.82-4.67 109.75-5.55 110.92-7.53 112.1-9.5 112.1-12.75L112.1-12.75 112.1-30.2 107.6-32.2 107.6-33 120.1-33 120.1-32.2 115.6-30.15 115.6-15.1Q115.6-9.2 113.75-5.8 111.9-2.4 108.5-0.95 105.1 0.5 100.55 0.5ZM143.04 0.25L139.39 0.25 125.69-30.1 122.04-32.2 122.04-33 139.64-33 139.64-32.2 135.79-30.3 144.29-11.45 144.74-11.45 153.24-30.25 149.19-32.2 149.19-33 160.04-33 160.04-32.2 157.09-30.55 143.04 0.25ZM182.34 0.5L182.34 0.5Q177.59 0.5 174.04-0.95 170.49-2.4 168.54-5.8 166.59-9.2 166.59-15.1L166.59-15.1 166.59-30.1 162.09-32.2 162.09-33 180.59-33 180.59-32.2 176.09-30.1 176.09-14.5Q176.09-10.4 177.37-8.08 178.64-5.75 180.77-4.78 182.89-3.8 185.49-3.8L185.49-3.8Q187.69-3.8 189.62-4.67 191.54-5.55 192.72-7.53 193.89-9.5 193.89-12.75L193.89-12.75 193.89-30.2 189.39-32.2 189.39-33 201.89-33 201.89-32.2 197.39-30.15 197.39-15.1Q197.39-9.2 195.54-5.8 193.69-2.4 190.29-0.95 186.89 0.5 182.34 0.5Z" opacity="1" transform="matrix(1,0,0,1,0,0)" fill="#6b7280" class="undefined-text-0" data-fill-palette-color="primary" id="text-0"></path></svg></g></svg></g></svg></g></svg></g><g><svg viewBox="0 0 190.83444400304796 175.6787736526946" height="175.6787736526946" width="190.83444400304796"><g><svg xmlns="http://www.w3.org/2000/svg" xmlns:xlink="http://www.w3.org/1999/xlink" version="1.1" x="0" y="0" viewBox="0 0 67 61.67900085449219" enable-background="new 0 0 67 61.679" xml:space="preserve" width="190.83444400304796" height="175.6787736526946" class="icon-icon-0" data-fill-palette-color="accent" id="icon-0"><path fill-rule="evenodd" clip-rule="evenodd" d="M30.834 61.679C21.26 61.679 19.822 54.195 13 48 6.08 41.715 1.818 42.496 3 32c17.764-9.237 33.223-20.777 49-32 5.59 1.41 6.402 7.598 9 12-2.801 0.532-5.199 1.468-8 2-1.376 3.027 0.477 3.572 0 8-2.375 1.645-4.299-3.845-8-4 2.368 2.632 5.623 4.377 6 9-0.479 4.521-4.076 5.924-6 9-0.438 9.771 1.271 17.395 4 24-0.744 2.256-5.609 0.391-8 1-1.902-1.131-1.969-5.58-7-6-2.859-4.945 0.361-11.336 1-16-3.492-1.697-8.077 2.922-14 2 2.17 7.83 8.206 12.472 11.874 16.011 1.166 1.125 3.596 1.042 3.557 2.501C36.377 61.511 32.584 61.679 30.834 61.679z" fill="#6b7280" data-fill-palette-color="accent"></path><path fill-rule="evenodd" clip-rule="evenodd" d="M54 15c1.753-0.914 4.99-0.344 6-2 0.625 4.477 3.957 15.752-6 14C51.447 23.718 55.167 20.024 54 15" fill="#6b7280" data-fill-palette-color="accent"></path><path fill-rule="evenodd" clip-rule="evenodd" d="M52 28c1.793-0.127 2.109 1.225 4 1 2.333 11.334 9.008 18.326 11 30-2.006 2.994-8.209 1.791-13 2 0.014-1.987 2.729-1.271 2-4-6.367-3.633-4.016-15.984-9-21C48.014 32.68 52.535 32.868 52 28" fill="#6b7280" data-fill-palette-color="accent"></path><path fill-rule="evenodd" clip-rule="evenodd" d="M7.5 33.666c7.76 0.24 3.014 21.82 6.5 26.334-2.566 1.848-11.361 1.399-14 0C0.475 53.809 6.088 38.921 7.5 33.666" fill="#6b7280" data-fill-palette-color="accent"></path></svg></g></svg></g></svg></g><defs></defs></svg><rect width="395.52" height="115.38511247562984" fill="none" stroke="none" visibility="hidden"></rect></g></svg></g></svg>